<svg id="svg" version="1.1" xmlns="http://www.w3.org/2000/svg" xmlns:xlink="http://www.w3.org/1999/xlink" width="400" height="93.55797819623389" viewBox="0, 0, 400,93.55797819623389"><g id="svgg"><path id="path0" d="M38.000 2.699 C 37.276 2.877,37.201 2.901,36.583 3.153 C 36.308 3.266,35.671 3.466,35.167 3.597 C 32.116 4.394,23.461 9.117,21.460 11.078 C 21.253 11.281,20.960 11.515,20.809 11.598 C 20.658 11.682,19.999 12.253,19.345 12.869 C 18.690 13.484,18.103 13.985,18.040 13.981 C 17.977 13.978,17.898 14.056,17.865 14.154 C 17.832 14.253,17.892 14.333,17.998 14.333 C 18.113 14.333,18.083 14.441,17.924 14.599 C 17.691 14.833,17.660 15.524,17.671 20.184 C 17.679 23.110,17.637 25.596,17.578 25.710 C 17.520 25.824,17.773 25.579,18.139 25.167 C 18.506 24.754,18.783 24.394,18.754 24.365 C 18.725 24.337,18.863 24.141,19.059 23.931 C 19.256 23.721,19.904 23.009,20.500 22.349 C 22.084 20.593,23.011 19.681,24.108 18.800 C 24.644 18.369,25.346 17.785,25.667 17.502 C 26.340 16.908,29.691 14.617,30.917 13.912 C 31.375 13.648,31.787 13.392,31.833 13.341 C 32.013 13.145,32.675 12.833,32.914 12.833 C 33.053 12.833,33.167 12.746,33.167 12.639 C 33.167 12.532,33.213 12.491,33.271 12.548 C 33.328 12.606,33.684 12.495,34.062 12.302 C 34.441 12.109,34.771 11.965,34.796 11.983 C 34.821 12.001,35.196 11.833,35.629 11.609 C 36.985 10.908,37.983 10.500,38.341 10.500 C 38.531 10.500,38.644 10.431,38.592 10.348 C 38.540 10.264,38.592 10.152,38.707 10.099 C 38.931 9.997,38.225 10.159,37.875 10.291 C 37.712 10.352,37.667 9.563,37.667 6.684 C 37.667 3.288,37.689 3.000,37.958 2.997 C 38.279 2.995,38.786 2.723,38.662 2.620 C 38.619 2.584,38.321 2.620,38.000 2.699 M27.500 26.917 L 21.085 33.333 20.001 33.335 C 19.405 33.336,18.635 33.383,18.292 33.440 L 17.667 33.544 17.667 37.188 L 17.667 40.833 18.951 40.833 L 20.235 40.833 26.533 47.125 C 29.997 50.585,32.901 53.417,32.986 53.417 C 33.201 53.417,35.667 51.024,35.667 50.816 C 35.667 50.723,35.725 50.683,35.797 50.728 C 35.869 50.772,36.110 50.570,36.333 50.279 C 36.556 49.988,37.111 49.394,37.566 48.958 C 38.020 48.523,38.302 48.167,38.192 48.167 C 38.082 48.167,37.919 47.975,37.830 47.740 C 37.731 47.480,37.592 47.360,37.475 47.432 C 37.359 47.504,37.327 47.479,37.395 47.369 C 37.457 47.268,37.237 46.978,36.900 46.718 C 36.566 46.461,35.870 45.811,35.355 45.274 C 34.839 44.737,32.924 42.807,31.100 40.986 L 27.784 37.674 28.514 36.879 C 28.915 36.441,31.102 34.226,33.372 31.955 C 35.642 29.684,37.500 27.753,37.500 27.663 C 37.500 27.573,37.628 27.500,37.783 27.500 C 38.004 27.500,38.022 27.456,37.867 27.300 C 37.637 27.070,37.588 24.735,37.810 24.598 C 37.924 24.527,34.147 20.500,33.966 20.500 C 33.938 20.500,31.028 23.387,27.500 26.917 M38.162 25.078 C 38.493 25.431,38.833 25.508,38.833 25.230 C 38.833 25.184,38.753 25.196,38.655 25.257 C 38.557 25.317,38.436 25.210,38.386 25.017 C 38.336 24.824,38.178 24.667,38.035 24.667 C 37.834 24.667,37.863 24.760,38.162 25.078 M38.084 26.832 C 37.828 27.115,37.822 27.167,38.040 27.167 C 38.182 27.167,38.345 27.043,38.403 26.893 C 38.560 26.482,38.424 26.457,38.084 26.832 M38.582 65.336 C 38.524 65.429,38.413 65.466,38.335 65.418 C 38.258 65.370,38.144 65.557,38.083 65.833 C 38.018 66.131,37.900 66.291,37.794 66.226 C 37.688 66.160,37.664 66.194,37.734 66.308 C 37.799 66.413,37.769 66.500,37.667 66.500 C 37.564 66.500,37.527 66.575,37.583 66.667 C 37.640 66.758,37.626 66.833,37.552 66.834 C 37.423 66.834,36.417 68.318,36.417 68.506 C 36.417 68.555,35.929 69.291,35.333 70.142 C 34.334 71.569,33.954 72.084,33.503 72.618 C 33.410 72.729,33.333 72.897,33.333 72.993 C 33.333 73.089,33.277 73.167,33.207 73.167 C 33.138 73.167,32.990 73.373,32.877 73.625 C 32.765 73.877,32.466 74.305,32.212 74.577 C 31.958 74.848,31.075 75.944,30.250 77.012 C 28.622 79.119,27.244 80.720,25.403 82.643 C 23.976 84.134,24.218 84.203,21.648 81.564 C 20.604 80.492,19.570 79.439,19.351 79.224 C 19.131 79.009,19.014 78.833,19.090 78.833 C 19.167 78.833,19.016 78.611,18.756 78.339 C 18.495 78.068,18.207 77.892,18.115 77.948 C 18.021 78.007,18.000 77.968,18.067 77.859 C 18.138 77.744,18.079 77.667,17.921 77.667 C 17.546 77.667,17.606 88.508,17.982 88.633 C 18.136 88.684,18.169 88.639,18.081 88.496 C 17.993 88.354,18.015 88.323,18.145 88.403 C 18.254 88.470,18.321 88.627,18.296 88.751 C 18.246 88.996,20.372 90.844,21.819 91.813 C 22.919 92.550,24.946 92.757,26.236 92.264 C 27.282 91.865,32.006 86.999,35.475 82.747 C 35.626 82.562,35.972 82.112,36.243 81.747 C 36.514 81.382,36.796 81.058,36.868 81.028 C 36.941 80.997,37.000 80.900,37.000 80.811 C 37.000 80.723,37.171 80.486,37.381 80.284 C 38.157 79.536,38.872 78.500,38.611 78.500 C 38.474 78.500,38.207 78.706,38.019 78.958 L 37.677 79.417 37.672 73.250 L 37.668 67.083 38.245 66.125 C 38.563 65.598,38.792 65.167,38.755 65.167 C 38.717 65.167,38.639 65.243,38.582 65.336 M47.647 72.282 C 47.636 72.356,47.636 72.473,47.647 72.542 C 47.658 72.610,47.597 72.667,47.511 72.667 C 47.425 72.667,47.260 72.929,47.144 73.250 C 47.028 73.571,46.869 73.833,46.790 73.833 C 46.711 73.833,46.693 73.908,46.750 74.000 C 46.807 74.092,46.774 74.167,46.677 74.167 C 46.579 74.167,46.497 74.260,46.492 74.375 C 46.481 74.694,43.419 79.507,41.917 81.569 L 41.250 82.483 41.296 87.492 L 41.343 92.500 41.805 92.500 C 42.685 92.500,43.750 91.604,45.506 89.384 C 46.435 88.210,47.370 87.057,47.584 86.821 C 47.853 86.524,47.926 86.319,47.822 86.154 C 47.611 85.821,47.622 73.061,47.834 72.666 C 47.945 72.457,47.945 72.319,47.834 72.250 C 47.742 72.193,47.658 72.208,47.647 72.282 " stroke="none" fill="#df0408" fill-rule="evenodd"></path><path id="path1" d="M47.917 0.677 C 45.902 0.830,44.004 1.138,41.833 1.667 C 41.054 1.856,40.079 2.093,39.667 2.192 C 39.254 2.291,38.782 2.513,38.619 2.686 C 38.455 2.859,38.173 3.000,37.994 3.000 C 37.679 3.000,37.667 3.136,37.667 6.684 C 37.667 9.563,37.712 10.352,37.875 10.291 C 38.545 10.039,38.910 9.983,38.667 10.170 C 38.464 10.326,38.496 10.342,38.833 10.258 C 39.063 10.200,39.392 10.121,39.566 10.082 C 39.740 10.042,40.137 9.926,40.449 9.823 C 40.761 9.720,41.181 9.611,41.383 9.580 C 41.817 9.514,42.469 9.388,43.500 9.171 C 47.130 8.406,53.725 7.960,55.733 8.343 C 56.303 8.452,56.618 8.443,56.775 8.313 C 56.935 8.180,57.000 8.179,57.000 8.308 C 57.000 8.408,57.105 8.449,57.233 8.400 C 57.361 8.351,57.516 8.391,57.576 8.489 C 57.637 8.587,57.761 8.667,57.853 8.667 C 57.945 8.667,57.963 8.573,57.895 8.458 C 57.795 8.292,57.821 8.292,58.025 8.457 C 58.463 8.811,58.500 8.540,58.500 4.972 L 58.500 1.500 58.083 1.500 C 57.854 1.500,57.667 1.425,57.667 1.333 C 57.667 1.242,57.746 1.167,57.843 1.167 C 57.940 1.167,57.976 1.096,57.923 1.010 C 57.827 0.856,57.308 0.893,57.013 1.075 C 56.929 1.127,56.758 1.067,56.632 0.942 C 56.507 0.817,56.070 0.706,55.661 0.695 C 55.251 0.685,53.754 0.645,52.333 0.608 C 50.913 0.570,48.925 0.601,47.917 0.677 M37.737 24.725 C 37.542 25.232,37.746 27.222,38.000 27.291 C 38.189 27.342,38.198 27.322,38.038 27.209 C 37.874 27.093,37.910 26.985,38.191 26.738 C 38.528 26.442,38.548 26.440,38.447 26.717 C 38.381 26.897,38.403 26.976,38.502 26.915 C 38.593 26.859,38.667 26.701,38.667 26.564 C 38.667 26.426,38.736 26.357,38.821 26.409 C 39.066 26.561,39.216 25.843,38.995 25.577 C 38.885 25.445,38.740 25.371,38.672 25.413 C 38.604 25.455,38.382 25.313,38.179 25.096 C 37.903 24.803,37.865 24.680,38.029 24.614 C 38.201 24.546,38.203 24.523,38.036 24.513 C 37.919 24.506,37.784 24.601,37.737 24.725 M51.875 29.875 C 51.785 29.990,51.663 30.347,51.605 30.670 C 51.547 30.992,51.311 31.849,51.081 32.575 C 50.851 33.300,50.627 34.049,50.584 34.238 C 50.541 34.428,50.383 34.996,50.234 35.500 C 50.084 36.004,49.676 37.489,49.327 38.799 C 48.577 41.615,47.853 43.982,47.070 46.183 C 46.756 47.063,46.500 47.838,46.500 47.905 C 46.500 47.972,46.306 48.527,46.070 49.138 C 45.833 49.750,45.465 50.700,45.252 51.250 C 45.039 51.800,44.625 52.775,44.332 53.417 C 43.468 55.310,43.078 56.172,42.447 57.583 C 41.853 58.913,41.370 59.864,40.550 61.317 C 39.567 63.057,38.987 64.209,39.057 64.279 C 39.098 64.320,38.952 64.533,38.732 64.753 C 38.278 65.207,38.164 65.681,38.596 65.323 C 38.767 65.181,38.729 65.324,38.489 65.732 C 38.254 66.129,38.075 66.288,37.999 66.165 C 37.916 66.031,37.848 66.055,37.775 66.245 C 37.706 66.426,37.735 66.477,37.864 66.398 C 38.002 66.312,38.014 66.368,37.903 66.598 C 37.630 67.165,37.617 79.278,37.890 79.278 C 38.017 79.278,38.112 79.162,38.102 79.021 C 38.092 78.880,38.290 78.663,38.542 78.540 C 38.794 78.416,39.000 78.241,39.000 78.150 C 39.000 78.060,39.192 77.782,39.427 77.534 C 40.080 76.843,44.665 69.846,45.346 68.500 C 45.555 68.087,45.851 67.563,46.004 67.333 C 46.235 66.988,47.914 63.875,48.340 63.000 C 49.416 60.794,51.406 56.471,51.755 55.583 C 51.827 55.400,51.871 55.156,51.852 55.042 C 51.834 54.927,51.878 54.834,51.951 54.836 C 52.148 54.840,52.531 55.105,52.514 55.227 C 52.506 55.285,52.509 55.371,52.521 55.417 C 52.532 55.462,52.554 55.556,52.570 55.625 C 52.677 56.097,53.090 57.000,53.200 57.000 C 53.273 57.000,53.318 57.056,53.299 57.125 C 53.280 57.194,53.390 57.484,53.542 57.771 C 53.695 58.057,53.773 58.338,53.716 58.396 C 53.658 58.453,53.689 58.500,53.785 58.500 C 53.880 58.500,54.002 58.716,54.054 58.980 C 54.107 59.244,54.248 59.563,54.367 59.688 C 54.598 59.932,54.770 60.266,55.346 61.583 C 55.546 62.042,55.756 62.454,55.813 62.500 C 55.870 62.546,56.066 62.883,56.248 63.250 C 56.431 63.617,56.648 63.965,56.731 64.025 C 56.814 64.084,56.836 64.252,56.780 64.397 C 56.717 64.564,56.805 64.729,57.019 64.844 C 57.206 64.944,57.320 65.128,57.271 65.254 C 57.214 65.403,57.268 65.451,57.425 65.390 C 57.558 65.339,57.667 65.381,57.667 65.482 C 57.667 65.584,57.573 65.668,57.458 65.669 C 57.313 65.671,57.322 65.717,57.488 65.823 C 57.619 65.905,57.746 66.105,57.769 66.266 C 57.793 66.427,57.931 66.625,58.076 66.706 C 58.222 66.787,58.297 66.924,58.244 67.010 C 58.190 67.096,58.226 67.167,58.323 67.167 C 58.445 67.167,58.500 64.616,58.500 58.930 C 58.500 54.400,58.550 50.563,58.612 50.403 C 58.688 50.205,58.661 50.150,58.528 50.232 C 58.406 50.308,58.333 50.238,58.333 50.047 C 58.333 49.879,58.213 49.569,58.066 49.360 C 57.919 49.150,57.844 48.934,57.898 48.880 C 57.953 48.825,57.904 48.666,57.790 48.525 C 57.654 48.357,57.649 48.309,57.776 48.385 C 57.922 48.472,57.922 48.399,57.776 48.085 C 57.670 47.856,57.527 47.669,57.458 47.668 C 57.390 47.667,57.333 47.587,57.333 47.490 C 57.333 47.393,57.427 47.361,57.542 47.419 C 57.656 47.477,57.615 47.414,57.449 47.279 C 57.224 47.095,57.203 47.012,57.366 46.947 C 57.544 46.875,57.544 46.857,57.365 46.846 C 57.245 46.839,57.190 46.763,57.243 46.677 C 57.296 46.592,57.185 46.245,56.995 45.908 C 56.805 45.570,56.691 45.254,56.740 45.204 C 56.790 45.155,56.760 45.029,56.674 44.925 C 56.588 44.821,56.477 44.510,56.428 44.233 C 56.380 43.957,56.105 43.022,55.818 42.157 C 55.532 41.291,55.284 40.508,55.269 40.417 C 55.253 40.325,55.182 40.156,55.110 40.042 C 55.039 39.927,55.025 39.833,55.079 39.833 C 55.134 39.833,55.093 39.674,54.989 39.480 C 54.881 39.277,54.872 39.171,54.968 39.230 C 55.068 39.292,55.101 39.200,55.048 39.000 C 55.000 38.817,54.902 38.667,54.831 38.667 C 54.759 38.667,54.698 38.423,54.696 38.125 C 54.694 37.827,54.577 37.312,54.436 36.980 C 54.295 36.647,54.227 36.329,54.284 36.271 C 54.342 36.214,54.314 36.167,54.222 36.167 C 54.131 36.167,54.052 36.073,54.047 35.958 C 54.029 35.552,53.820 34.575,53.627 34.000 C 53.519 33.679,53.422 33.379,53.410 33.333 C 53.260 32.730,53.102 32.218,53.023 32.083 C 52.970 31.992,52.910 31.804,52.890 31.667 C 52.871 31.529,52.766 31.117,52.658 30.750 C 52.549 30.383,52.434 29.990,52.402 29.875 C 52.370 29.760,52.276 29.667,52.192 29.667 C 52.109 29.667,51.966 29.760,51.875 29.875 M37.143 49.292 C 36.664 49.871,36.461 50.167,36.543 50.167 C 36.589 50.167,36.827 49.904,37.072 49.583 C 37.526 48.988,37.581 48.763,37.143 49.292 M221.212 57.500 C 221.212 57.913,221.245 58.081,221.284 57.875 C 221.324 57.669,221.324 57.331,221.284 57.125 C 221.245 56.919,221.212 57.087,221.212 57.500 M51.896 63.628 C 51.740 63.730,50.167 66.895,50.167 67.107 C 50.167 67.145,49.904 67.729,49.583 68.405 C 49.262 69.082,49.000 69.698,48.999 69.776 C 48.999 69.853,48.706 70.404,48.347 71.000 C 47.955 71.650,47.752 72.152,47.838 72.255 C 47.918 72.352,47.913 72.535,47.826 72.672 C 47.644 72.961,47.613 85.832,47.794 86.093 C 47.874 86.207,48.018 86.164,48.208 85.968 C 48.369 85.802,48.462 85.667,48.417 85.667 C 48.371 85.667,48.465 85.529,48.625 85.361 C 48.785 85.193,49.122 84.724,49.373 84.320 C 49.624 83.915,50.164 83.133,50.573 82.583 C 50.982 82.033,51.323 81.508,51.331 81.417 C 51.412 80.476,52.833 80.225,52.833 81.151 C 52.833 81.316,53.077 81.705,53.375 82.017 C 53.673 82.328,53.896 82.645,53.871 82.721 C 53.846 82.796,53.902 82.811,53.996 82.753 C 54.097 82.690,54.167 82.834,54.167 83.101 C 54.167 83.351,54.206 83.516,54.254 83.469 C 54.444 83.279,54.343 67.942,54.151 67.824 C 54.018 67.741,54.029 67.681,54.189 67.617 C 54.367 67.546,54.369 67.523,54.198 67.513 C 54.079 67.506,54.021 67.434,54.071 67.353 C 54.121 67.272,53.974 66.930,53.745 66.592 C 53.515 66.254,53.368 65.912,53.417 65.833 C 53.465 65.754,53.438 65.648,53.355 65.597 C 53.272 65.546,53.156 65.248,53.098 64.935 C 52.926 64.017,52.316 63.353,51.896 63.628 " stroke="none" fill="#c1040c" fill-rule="evenodd"></path><path id="path2" d="M83.401 11.692 C 83.329 11.808,83.355 11.840,83.464 11.772 C 83.564 11.710,83.715 11.783,83.800 11.935 C 83.899 12.112,83.993 12.146,84.065 12.030 C 84.126 11.931,84.028 11.771,83.848 11.675 C 83.612 11.548,83.487 11.553,83.401 11.692 M84.493 12.452 C 84.611 12.695,84.657 14.491,84.627 17.731 L 84.583 22.642 83.908 22.029 C 83.537 21.692,83.183 21.285,83.122 21.125 C 83.001 20.808,82.667 20.724,82.667 21.010 C 82.667 21.107,82.742 21.140,82.833 21.083 C 82.925 21.027,83.000 21.123,83.000 21.298 C 83.000 21.589,83.473 22.167,83.711 22.167 C 83.926 22.167,84.796 23.114,85.166 23.750 C 85.379 24.117,85.710 24.544,85.902 24.699 C 86.093 24.854,86.250 25.055,86.250 25.145 C 86.250 25.236,86.379 25.446,86.537 25.613 C 87.225 26.340,87.797 27.111,87.905 27.458 C 87.970 27.665,88.097 27.833,88.188 27.833 C 88.279 27.833,88.313 27.898,88.264 27.977 C 88.216 28.056,88.549 28.662,89.004 29.323 C 89.460 29.985,89.833 30.566,89.833 30.613 C 89.833 30.661,90.091 31.124,90.406 31.642 C 90.721 32.160,91.105 32.977,91.259 33.458 C 91.413 33.940,91.617 34.333,91.714 34.333 C 91.810 34.333,91.844 34.378,91.790 34.433 C 91.735 34.487,91.865 34.956,92.080 35.474 C 92.489 36.464,92.709 37.027,92.740 37.167 C 92.750 37.212,92.996 38.000,93.286 38.917 C 94.245 41.945,94.351 42.358,94.517 43.727 C 94.608 44.473,94.715 45.346,94.754 45.667 C 94.793 45.987,94.863 46.550,94.909 46.917 C 95.086 48.316,95.128 52.811,94.978 54.167 C 94.891 54.946,94.796 55.958,94.765 56.417 C 94.735 56.875,94.669 57.362,94.619 57.500 C 94.569 57.637,94.485 58.221,94.433 58.798 C 94.318 60.051,93.479 63.399,92.923 64.817 C 92.704 65.376,92.575 65.834,92.637 65.836 C 92.699 65.837,92.658 65.897,92.546 65.968 C 92.434 66.039,92.314 66.245,92.279 66.424 C 92.245 66.603,92.155 66.900,92.080 67.083 C 91.143 69.363,90.676 70.355,89.806 71.914 C 89.242 72.924,88.596 73.994,88.370 74.292 C 88.145 74.590,88.026 74.834,88.105 74.836 C 88.185 74.837,88.174 74.894,88.081 74.961 C 87.989 75.028,87.428 75.758,86.836 76.583 C 86.245 77.408,85.589 78.220,85.380 78.387 C 85.171 78.554,85.000 78.835,85.000 79.012 C 85.000 79.189,84.927 79.333,84.838 79.333 C 84.737 79.333,84.658 81.350,84.630 84.659 L 84.583 89.984 84.980 89.724 C 85.843 89.158,91.043 83.771,92.435 82.001 C 92.975 81.314,93.554 80.601,93.722 80.417 C 93.891 80.234,94.146 79.858,94.290 79.583 C 94.434 79.308,95.018 78.371,95.588 77.500 C 96.462 76.164,97.339 74.651,97.424 74.333 C 97.436 74.287,97.725 73.650,98.066 72.917 C 99.175 70.535,99.294 70.265,99.715 69.167 C 102.322 62.374,103.414 53.236,102.452 46.250 C 101.840 41.804,101.630 40.563,101.237 39.049 C 101.015 38.195,100.833 37.348,100.833 37.167 C 100.833 36.484,99.013 31.684,97.926 29.500 C 97.721 29.087,97.361 28.333,97.127 27.823 C 96.225 25.861,92.794 20.688,91.473 19.302 C 91.259 19.077,90.933 18.673,90.750 18.405 C 90.289 17.730,86.214 13.662,85.500 13.164 C 85.179 12.940,84.781 12.606,84.616 12.420 C 84.316 12.085,84.315 12.085,84.493 12.452 M81.167 19.583 C 81.478 19.904,81.770 20.167,81.815 20.167 C 81.861 20.167,81.644 19.904,81.333 19.583 C 81.022 19.262,80.730 19.000,80.685 19.000 C 80.639 19.000,80.856 19.262,81.167 19.583 M179.371 22.662 C 176.527 23.685,175.417 25.352,175.429 28.583 C 175.457 36.353,186.258 37.386,187.830 29.769 C 188.800 25.070,183.966 21.008,179.371 22.662 M239.829 22.727 C 234.714 24.455,234.483 31.918,239.468 34.371 C 243.486 36.348,248.248 33.460,248.461 28.917 C 248.683 24.200,244.451 21.166,239.829 22.727 M107.167 29.667 L 107.167 35.000 114.500 35.000 L 121.833 35.000 121.833 55.250 L 121.833 75.500 127.417 75.500 L 133.000 75.500 133.000 55.250 L 133.000 35.000 140.417 35.000 L 147.833 35.000 147.833 29.667 L 147.833 24.333 127.500 24.333 L 107.167 24.333 107.167 29.667 M258.167 34.833 L 258.167 39.500 254.833 39.500 L 251.500 39.500 251.500 44.500 L 251.500 49.500 254.824 49.500 L 258.148 49.500 258.206 57.042 C 258.272 65.664,258.278 65.710,259.810 68.915 C 261.055 71.522,263.184 73.614,265.583 74.588 C 266.225 74.849,266.825 75.114,266.917 75.177 C 268.530 76.293,276.568 76.166,277.728 75.006 C 277.897 74.836,277.457 65.902,277.271 65.715 C 277.219 65.663,276.818 65.725,276.380 65.852 C 273.353 66.731,270.433 65.634,269.271 63.182 L 268.750 62.083 268.701 55.792 L 268.652 49.500 273.076 49.500 L 277.500 49.500 277.500 44.500 L 277.500 39.500 273.083 39.500 L 268.667 39.500 268.667 34.833 L 268.667 30.167 263.417 30.167 L 258.167 30.167 258.167 34.833 M164.711 39.090 C 162.690 39.635,160.386 41.159,159.208 42.731 L 158.833 43.231 158.833 41.366 L 158.833 39.500 153.500 39.500 L 148.167 39.500 148.167 57.500 L 148.167 75.500 153.500 75.500 L 158.833 75.500 158.833 64.510 C 158.833 57.253,158.891 53.484,159.003 53.415 C 159.096 53.358,159.273 53.068,159.396 52.773 C 159.637 52.196,161.187 50.765,162.646 49.773 C 164.596 48.447,166.945 48.193,169.813 49.000 C 170.489 49.191,171.059 49.325,171.080 49.298 C 171.175 49.176,171.694 39.472,171.610 39.388 C 171.084 38.862,166.322 38.656,164.711 39.090 M210.881 39.237 C 208.658 39.826,205.371 41.762,204.801 42.819 C 204.608 43.176,204.574 43.018,204.500 41.402 L 204.417 39.583 199.125 39.539 L 193.833 39.495 193.833 63.331 L 193.833 87.167 199.167 87.167 L 204.500 87.167 204.500 79.467 L 204.500 71.767 205.323 72.690 C 208.994 76.809,218.006 77.262,223.479 73.603 C 225.115 72.509,228.500 68.891,228.500 68.236 C 228.500 68.185,228.691 67.893,228.925 67.587 C 229.304 67.091,230.407 64.629,230.590 63.872 C 233.135 53.365,229.691 44.390,221.533 40.268 C 218.725 38.849,214.051 38.397,210.881 39.237 M294.305 38.918 C 294.251 38.971,293.992 39.052,293.729 39.099 C 290.047 39.743,285.072 43.239,283.367 46.378 C 283.156 46.766,282.697 47.608,282.346 48.250 C 277.827 56.509,280.495 68.122,288.153 73.529 C 288.649 73.880,289.193 74.167,289.361 74.167 C 289.529 74.167,289.667 74.231,289.667 74.310 C 289.667 74.470,291.717 75.308,293.250 75.774 C 297.187 76.972,303.595 75.537,306.318 72.849 L 307.333 71.846 307.333 73.673 L 307.333 75.500 312.667 75.500 L 318.000 75.500 318.000 57.500 L 318.000 39.500 312.667 39.500 L 307.333 39.500 307.333 41.302 L 307.333 43.105 306.293 42.143 C 305.722 41.613,305.065 41.087,304.835 40.972 C 304.605 40.858,304.304 40.675,304.167 40.565 C 302.692 39.392,295.099 38.123,294.305 38.918 M339.000 38.952 C 336.965 39.269,331.833 41.217,331.833 41.673 C 331.833 41.741,331.482 41.962,331.052 42.164 C 330.160 42.583,327.506 45.216,326.497 46.683 C 323.192 51.488,322.353 58.918,324.509 64.280 C 324.797 64.997,325.142 65.876,325.275 66.235 C 326.138 68.560,330.222 72.758,332.750 73.919 C 340.483 77.472,349.631 76.626,354.601 71.899 C 354.879 71.633,355.484 71.062,355.945 70.628 C 356.407 70.194,356.994 69.519,357.251 69.128 C 357.508 68.737,357.848 68.226,358.006 67.992 C 359.445 65.865,359.411 65.708,357.324 64.855 C 356.458 64.501,355.113 63.907,354.333 63.536 C 351.160 62.023,350.030 61.545,349.866 61.646 C 349.771 61.705,349.328 62.254,348.882 62.867 C 344.223 69.257,333.667 65.521,333.667 57.483 C 333.667 49.511,344.321 45.646,348.583 52.072 C 349.125 52.890,349.256 52.949,349.755 52.609 C 349.935 52.485,350.683 52.060,351.417 51.663 C 352.150 51.266,353.676 50.388,354.808 49.710 C 355.941 49.033,357.122 48.357,357.433 48.208 C 358.108 47.887,358.110 47.872,357.600 46.869 C 356.824 45.346,354.592 43.047,352.833 41.960 C 352.238 41.592,351.562 41.161,351.331 41.003 C 349.008 39.407,342.759 38.368,339.000 38.952 M373.917 39.071 C 368.097 40.406,362.158 46.330,361.246 51.708 C 361.196 52.006,361.030 52.887,360.878 53.667 C 359.896 58.696,361.040 64.635,363.755 68.599 C 364.165 69.198,364.500 69.745,364.500 69.816 C 364.500 69.981,366.671 72.108,367.750 72.999 C 373.129 77.442,383.693 76.987,387.256 72.159 L 387.667 71.602 387.667 73.551 L 387.667 75.500 392.917 75.500 L 398.167 75.500 398.167 57.500 L 398.167 39.500 392.917 39.500 L 387.667 39.500 387.667 41.361 L 387.667 43.222 387.042 42.558 C 384.239 39.582,378.423 38.037,373.917 39.071 M176.333 57.500 L 176.333 75.500 181.583 75.500 L 186.833 75.500 186.833 57.500 L 186.833 39.500 181.583 39.500 L 176.333 39.500 176.333 57.500 M237.000 57.500 L 237.000 75.500 242.250 75.500 L 247.500 75.500 247.500 57.500 L 247.500 39.500 242.250 39.500 L 237.000 39.500 237.000 57.500 M215.083 49.164 C 223.305 51.959,223.262 62.840,215.018 65.744 C 211.864 66.855,206.982 65.318,205.031 62.601 L 204.500 61.862 204.500 57.506 C 204.500 52.451,204.456 52.623,206.100 51.267 C 208.935 48.928,212.165 48.172,215.083 49.164 M300.667 48.837 C 302.779 49.163,305.646 50.888,306.859 52.562 L 307.333 53.217 307.333 57.511 L 307.333 61.806 306.546 62.795 C 302.816 67.479,294.943 67.079,291.848 62.049 C 287.948 55.711,293.296 47.697,300.667 48.837 M382.357 49.218 C 384.236 49.819,386.492 51.408,387.207 52.633 L 387.664 53.417 387.665 57.684 L 387.667 61.952 386.652 63.059 C 382.052 68.079,373.202 66.472,371.225 60.258 C 369.039 53.383,375.462 47.013,382.357 49.218 M60.840 79.417 C 60.840 79.508,60.994 79.771,61.182 80.000 C 61.408 80.277,61.465 80.305,61.350 80.083 C 61.069 79.540,60.838 79.238,60.840 79.417 M83.999 80.084 C 83.784 80.313,83.648 80.500,83.695 80.500 C 83.861 80.500,84.553 79.831,84.472 79.750 C 84.427 79.705,84.214 79.855,83.999 80.084 M62.341 81.681 C 62.614 82.190,62.562 92.191,62.285 92.367 C 62.174 92.437,62.631 92.496,63.300 92.497 C 64.728 92.500,65.103 92.338,66.651 91.050 C 67.255 90.546,67.881 90.030,68.042 89.902 C 68.701 89.377,68.430 88.680,66.977 87.165 C 66.232 86.387,65.428 85.487,65.191 85.167 C 64.955 84.846,64.534 84.316,64.256 83.988 C 63.240 82.793,63.070 82.572,62.692 81.958 C 62.283 81.297,62.026 81.093,62.341 81.681 M81.412 82.792 L 81.119 83.250 81.559 82.846 C 82.036 82.409,82.079 82.333,81.853 82.333 C 81.771 82.333,81.573 82.540,81.412 82.792 M84.167 90.333 C 84.167 90.425,84.110 90.482,84.042 90.460 C 83.973 90.437,83.731 90.550,83.505 90.710 C 83.250 90.889,83.186 91.000,83.338 90.999 C 83.640 90.998,84.665 90.181,84.375 90.173 C 84.260 90.169,84.167 90.242,84.167 90.333 M59.833 90.885 C 59.833 90.914,60.077 91.158,60.375 91.427 L 60.917 91.917 60.427 91.375 C 59.971 90.870,59.833 90.757,59.833 90.885 " stroke="none" fill="#a40404" fill-rule="evenodd"></path><path id="path3" d="M17.647 14.297 C 17.636 14.363,17.636 14.473,17.647 14.542 C 17.658 14.610,17.550 14.667,17.407 14.667 C 17.264 14.667,17.193 14.742,17.250 14.834 C 17.307 14.925,17.161 15.074,16.927 15.163 C 16.692 15.252,16.500 15.401,16.500 15.495 C 16.500 15.588,15.956 16.213,15.292 16.885 C 14.064 18.124,13.296 19.000,13.436 19.000 C 13.517 19.000,13.395 19.155,12.583 20.085 C 12.308 20.400,11.896 20.928,11.667 21.257 C 11.438 21.587,11.090 22.057,10.895 22.303 C 10.700 22.549,10.109 23.500,9.581 24.417 C 9.054 25.333,8.569 26.121,8.503 26.167 C 8.292 26.316,6.838 29.142,6.576 29.912 C 6.436 30.324,6.068 31.206,5.757 31.872 C 3.319 37.105,2.068 43.182,1.895 50.645 C 1.652 61.065,2.583 65.679,6.573 73.833 C 7.622 75.977,7.875 76.416,9.125 78.257 C 9.606 78.966,10.000 79.597,10.000 79.658 C 10.000 79.720,10.135 79.916,10.299 80.094 C 10.463 80.271,10.929 80.867,11.334 81.417 C 11.739 81.967,12.223 82.578,12.410 82.775 C 12.597 82.972,12.934 83.384,13.159 83.692 C 13.666 84.384,17.665 88.392,17.671 88.213 C 17.674 88.142,17.672 85.740,17.667 82.875 C 17.659 78.229,17.687 77.667,17.922 77.667 C 18.067 77.667,18.148 77.729,18.101 77.806 C 18.053 77.882,18.123 77.944,18.255 77.944 C 18.436 77.944,18.449 77.890,18.310 77.722 C 18.209 77.600,18.018 77.500,17.886 77.500 C 17.755 77.500,17.688 77.433,17.739 77.351 C 17.790 77.269,17.719 77.158,17.581 77.105 C 17.443 77.053,17.344 76.951,17.362 76.880 C 17.406 76.700,16.779 75.669,16.625 75.668 C 16.556 75.667,16.500 75.554,16.500 75.417 C 16.500 75.279,16.425 75.167,16.333 75.167 C 16.242 75.167,16.167 75.054,16.167 74.917 C 16.167 74.779,16.017 74.517,15.833 74.333 C 15.650 74.150,15.501 73.944,15.501 73.875 C 15.502 73.806,15.408 73.634,15.293 73.491 C 15.178 73.349,14.936 72.937,14.757 72.575 C 14.577 72.213,14.305 71.729,14.151 71.500 C 13.611 70.694,13.000 69.517,13.000 69.280 C 13.000 69.149,12.749 68.489,12.442 67.812 C 12.135 67.136,11.750 66.171,11.587 65.667 C 11.423 65.162,11.231 64.675,11.160 64.583 C 10.939 64.297,9.839 60.039,9.793 59.292 C 9.770 58.902,9.703 58.546,9.644 58.500 C 9.586 58.454,9.484 57.667,9.419 56.750 C 9.353 55.833,9.251 54.446,9.192 53.667 C 9.083 52.240,9.214 48.393,9.420 47.000 C 9.480 46.587,9.563 45.987,9.603 45.667 C 9.875 43.497,10.047 42.474,10.269 41.708 L 10.524 40.833 14.095 40.833 L 17.667 40.833 17.667 37.178 L 17.667 33.522 18.125 33.453 C 18.377 33.415,17.358 33.372,15.861 33.358 C 14.364 33.345,13.166 33.277,13.200 33.208 C 13.233 33.140,13.369 32.858,13.502 32.583 C 13.635 32.308,13.820 32.028,13.913 31.961 C 14.007 31.894,14.029 31.837,13.962 31.836 C 13.895 31.834,14.064 31.481,14.337 31.051 C 14.610 30.620,14.833 30.177,14.833 30.065 C 14.833 29.953,14.890 29.836,14.958 29.806 C 15.167 29.713,16.197 28.167,16.052 28.164 C 15.978 28.163,15.992 28.106,16.083 28.039 C 16.257 27.911,16.551 27.434,16.980 26.583 C 17.119 26.308,17.378 25.933,17.557 25.750 C 17.736 25.567,17.822 25.522,17.749 25.651 C 17.656 25.814,17.678 25.846,17.822 25.757 C 17.971 25.665,17.978 25.578,17.848 25.448 C 17.540 25.140,17.601 14.923,17.912 14.611 C 18.129 14.395,18.129 14.355,17.912 14.271 C 17.777 14.220,17.658 14.231,17.647 14.297 M40.755 83.157 C 40.616 83.426,40.367 83.745,40.203 83.865 C 40.038 83.985,39.557 84.533,39.132 85.083 C 38.708 85.633,37.903 86.553,37.342 87.127 C 35.675 88.835,35.655 89.342,37.199 90.703 C 38.556 91.898,39.697 92.500,40.606 92.500 L 41.333 92.500 41.333 87.583 C 41.333 82.614,41.273 82.155,40.755 83.157 " stroke="none" fill="#f70604" fill-rule="evenodd"></path><path id="path4" d="M56.500 0.899 C 56.500 1.061,56.970 1.121,57.182 0.987 C 57.353 0.879,57.292 0.838,56.958 0.836 C 56.706 0.834,56.500 0.863,56.500 0.899 M57.917 1.000 C 57.973 1.092,57.940 1.167,57.843 1.167 C 57.746 1.167,57.667 1.242,57.667 1.333 C 57.667 1.425,57.854 1.500,58.083 1.500 L 58.500 1.500 58.500 4.990 C 58.500 8.465,58.498 8.481,58.144 8.412 C 57.948 8.375,57.842 8.398,57.908 8.464 C 57.974 8.529,58.078 8.587,58.139 8.592 C 58.200 8.596,58.400 8.647,58.583 8.706 C 58.767 8.764,59.286 8.858,59.738 8.914 C 60.190 8.971,60.620 9.054,60.693 9.100 C 60.766 9.145,61.071 9.220,61.371 9.268 C 63.857 9.661,66.119 10.410,70.000 12.125 C 71.598 12.832,75.799 15.188,75.999 15.490 C 76.046 15.560,76.271 15.714,76.500 15.834 C 76.965 16.076,78.644 17.339,79.236 17.892 C 79.446 18.089,79.827 18.400,80.082 18.583 C 80.336 18.767,80.872 19.226,81.272 19.603 C 81.673 19.981,82.002 20.243,82.005 20.186 C 82.008 20.130,82.089 20.219,82.185 20.384 C 82.281 20.550,82.542 20.754,82.763 20.838 C 82.985 20.923,83.167 21.088,83.167 21.206 C 83.167 21.324,83.353 21.561,83.580 21.731 C 83.808 21.902,83.946 22.119,83.888 22.213 C 83.830 22.308,83.860 22.337,83.955 22.278 C 84.139 22.164,84.558 22.553,84.411 22.700 C 84.364 22.747,84.454 22.890,84.611 23.018 C 84.798 23.169,84.854 23.178,84.773 23.043 C 84.704 22.929,84.654 20.566,84.661 17.793 C 84.675 12.699,84.564 11.735,84.006 12.080 C 83.930 12.126,83.823 12.048,83.769 11.905 C 83.714 11.762,83.602 11.687,83.520 11.738 C 83.438 11.788,83.381 11.707,83.394 11.558 C 83.406 11.408,83.312 11.249,83.185 11.205 C 83.030 11.150,82.997 11.194,83.086 11.337 C 83.173 11.478,83.152 11.511,83.026 11.433 C 82.920 11.367,82.833 11.203,82.833 11.068 C 82.833 10.933,82.702 10.773,82.542 10.712 C 82.381 10.650,82.105 10.465,81.927 10.300 C 81.749 10.135,81.505 10.000,81.385 10.000 C 81.265 10.000,81.167 9.937,81.167 9.860 C 81.167 9.782,80.904 9.578,80.583 9.405 C 80.262 9.232,80.000 9.033,80.000 8.962 C 80.000 8.891,79.887 8.833,79.750 8.833 C 79.612 8.833,79.500 8.767,79.500 8.686 C 79.500 8.605,79.369 8.493,79.208 8.437 C 79.048 8.381,78.579 8.110,78.167 7.835 C 77.754 7.560,77.192 7.227,76.917 7.097 C 76.642 6.966,75.892 6.570,75.250 6.217 C 73.768 5.403,70.626 4.000,70.282 4.000 C 70.138 4.000,69.977 3.931,69.925 3.846 C 69.872 3.762,69.587 3.639,69.290 3.575 C 68.993 3.510,68.000 3.213,67.083 2.915 C 65.424 2.376,62.444 1.603,61.333 1.425 C 60.811 1.341,60.460 1.297,58.791 1.107 C 58.539 1.078,58.283 1.005,58.222 0.944 C 58.048 0.770,57.802 0.815,57.917 1.000 M52.128 8.287 C 52.428 8.325,52.878 8.324,53.128 8.286 C 53.378 8.248,53.133 8.217,52.583 8.218 C 52.033 8.219,51.828 8.250,52.128 8.287 M57.839 48.958 C 57.842 49.027,57.964 49.233,58.111 49.417 C 58.346 49.710,58.365 49.713,58.272 49.445 C 58.214 49.277,58.167 49.071,58.167 48.986 C 58.167 48.902,58.092 48.833,58.000 48.833 C 57.908 48.833,57.836 48.890,57.839 48.958 M58.474 58.917 C 58.443 63.592,58.473 67.442,58.543 67.473 C 58.612 67.503,58.626 67.598,58.574 67.682 C 58.522 67.767,58.596 67.881,58.739 67.936 C 58.883 67.991,59.000 68.206,59.000 68.414 C 59.000 68.622,59.112 68.886,59.250 69.000 C 59.387 69.114,59.500 69.301,59.500 69.414 C 59.500 69.528,59.719 69.873,59.988 70.180 C 60.256 70.487,60.439 70.797,60.394 70.869 C 60.350 70.941,60.393 71.000,60.490 71.000 C 60.587 71.000,60.667 71.102,60.667 71.228 C 60.667 71.353,60.834 71.668,61.040 71.929 C 61.245 72.190,61.564 72.684,61.748 73.027 C 62.057 73.601,63.148 75.190,65.500 78.491 C 66.004 79.198,66.867 80.332,67.417 81.010 C 67.967 81.688,68.529 82.388,68.667 82.565 C 68.883 82.844,69.441 83.503,71.498 85.907 C 73.596 88.359,77.140 91.870,77.863 92.214 C 78.677 92.600,80.933 92.612,81.474 92.233 C 81.683 92.086,81.896 92.008,81.947 92.058 C 81.998 92.109,82.141 92.061,82.264 91.950 C 82.849 91.428,83.084 91.250,83.190 91.250 C 83.254 91.250,83.362 91.194,83.431 91.125 C 83.499 91.056,83.451 91.000,83.324 91.000 C 83.196 91.000,83.276 90.871,83.505 90.710 C 83.731 90.550,83.973 90.437,84.042 90.460 C 84.110 90.482,84.167 90.434,84.167 90.353 C 84.167 90.272,84.298 90.171,84.458 90.129 C 84.730 90.058,84.746 89.688,84.693 84.735 C 84.661 81.810,84.595 79.520,84.547 79.647 C 84.498 79.773,84.125 80.205,83.719 80.605 C 83.287 81.031,83.030 81.413,83.099 81.526 C 83.173 81.645,83.145 81.673,83.026 81.599 C 82.920 81.534,82.833 81.572,82.833 81.685 C 82.833 81.797,82.791 81.846,82.739 81.795 C 82.687 81.743,82.203 82.137,81.663 82.670 C 80.098 84.216,80.146 84.235,77.164 80.861 C 76.570 80.188,75.992 79.540,75.881 79.420 C 75.413 78.916,71.365 73.595,70.777 72.711 C 70.426 72.183,69.788 71.283,69.361 70.713 C 68.933 70.143,67.983 68.697,67.250 67.501 C 66.517 66.304,65.787 65.121,65.629 64.871 C 65.471 64.621,65.172 64.079,64.966 63.667 C 64.760 63.254,64.084 61.986,63.463 60.849 C 62.841 59.712,62.333 58.752,62.333 58.716 C 62.333 58.679,61.932 57.810,61.442 56.783 C 60.952 55.757,60.450 54.654,60.328 54.333 C 60.205 54.012,59.990 53.570,59.850 53.350 C 59.710 53.130,59.583 52.867,59.568 52.767 C 59.553 52.666,59.313 52.096,59.036 51.500 L 58.532 50.417 58.474 58.917 M56.667 64.333 C 56.765 64.517,56.936 64.661,57.048 64.654 C 57.200 64.644,57.199 64.620,57.042 64.556 C 56.927 64.510,56.833 64.366,56.833 64.236 C 56.833 64.106,56.756 64.000,56.661 64.000 C 56.544 64.000,56.546 64.107,56.667 64.333 M57.005 64.927 C 57.014 65.179,57.487 65.735,57.598 65.624 C 57.654 65.568,57.543 65.353,57.350 65.146 C 57.158 64.940,57.002 64.841,57.005 64.927 M54.128 67.806 C 54.295 67.912,54.340 69.628,54.340 75.804 C 54.340 80.826,54.399 83.667,54.503 83.667 C 54.593 83.667,54.667 83.734,54.667 83.817 C 54.667 84.135,55.673 85.510,58.998 89.737 C 60.295 91.385,61.864 92.623,62.309 92.349 C 62.830 92.026,62.516 81.167,61.984 81.167 C 61.914 81.167,61.802 80.998,61.737 80.792 C 61.672 80.586,61.522 80.343,61.405 80.251 C 61.288 80.159,60.990 79.708,60.742 79.250 C 60.495 78.792,60.121 78.229,59.911 78.000 C 59.702 77.771,59.103 76.796,58.580 75.833 C 58.058 74.871,57.154 73.254,56.573 72.240 C 55.992 71.227,55.446 70.214,55.360 69.990 C 54.899 68.791,54.299 67.667,54.120 67.669 C 53.967 67.671,53.969 67.705,54.128 67.806 M53.750 82.596 C 53.933 82.734,54.071 82.901,54.056 82.966 C 54.040 83.030,54.059 83.115,54.097 83.153 C 54.135 83.191,54.167 83.112,54.167 82.978 C 54.167 82.691,53.843 82.331,53.592 82.339 C 53.495 82.342,53.567 82.457,53.750 82.596 M87.824 86.958 L 87.250 87.583 87.875 87.009 C 88.457 86.474,88.577 86.333,88.449 86.333 C 88.422 86.333,88.140 86.615,87.824 86.958 " stroke="none" fill="#b4040c" fill-rule="evenodd"></path></g></svg>